<svg width="50" height="50" viewBox="0 0 50 50" fill="none" xmlns="http://www.w3.org/2000/svg">
<rect width="50" height="50" rx="12" fill="white"/>
<path d="M33.0429 13.6628L24.6429 13.655L31.5506 17.7979L31.5462 19.2578L24.794 23.3355L33.0139 23.3627L33.0049 26.4027L19.0049 26.3564L19.0129 23.6764L27.7286 18.4652L19.044 13.2765L19.052 10.6165L33.052 10.6228L33.0429 13.6628Z" fill="black"/>
<path d="M31.76 36.74C30.6533 36.74 29.58 36.5933 28.54 36.3C27.5133 35.9933 26.6867 35.6 26.06 35.12L27.16 32.68C27.76 33.12 28.4733 33.4733 29.3 33.74C30.1267 34.0067 30.9533 34.14 31.78 34.14C32.7 34.14 33.38 34.0067 33.82 33.74C34.26 33.46 34.48 33.0933 34.48 32.64C34.48 32.3067 34.3467 32.0333 34.08 31.82C33.8267 31.5933 33.4933 31.4133 33.08 31.28C32.68 31.1467 32.1333 31 31.44 30.84C30.3733 30.5867 29.5 30.3333 28.82 30.08C28.14 29.8267 27.5533 29.42 27.06 28.86C26.58 28.3 26.34 27.5533 26.34 26.62C26.34 25.8067 26.56 25.0733 27 24.42C27.44 23.7533 28.1 23.2267 28.98 22.84C29.8733 22.4533 30.96 22.26 32.24 22.26C33.1333 22.26 34.0067 22.3667 34.86 22.58C35.7133 22.7933 36.46 23.1 37.1 23.5L36.1 25.96C34.8067 25.2267 33.5133 24.86 32.22 24.86C31.3133 24.86 30.64 25.0067 30.2 25.3C29.7733 25.5933 29.56 25.98 29.56 26.46C29.56 26.94 29.8067 27.3 30.3 27.54C30.8067 27.7667 31.5733 27.9933 32.6 28.22C33.6667 28.4733 34.54 28.7267 35.22 28.98C35.9 29.2333 36.48 29.6333 36.96 30.18C37.4533 30.7267 37.7 31.4667 37.7 32.4C37.7 33.2 37.4733 33.9333 37.02 34.6C36.58 35.2533 35.9133 35.7733 35.02 36.16C34.1267 36.5467 33.04 36.74 31.76 36.74Z" fill="black"/>
</svg>
